<?xml version="1.0" encoding="UTF-8"?>
<svg id="Layer_1" data-name="Layer 1" xmlns="http://www.w3.org/2000/svg" xmlns:xlink="http://www.w3.org/1999/xlink" version="1.1" viewBox="0 0 2122 2122">
  <defs>
    <style>
      .cls-1 {
        clip-path: url(#clippath);
      }

      .cls-2 {
        fill: none;
      }

      .cls-2, .cls-3 {
        stroke-width: 0px;
      }

      .cls-4 {
        clip-path: url(#clippath-1);
      }

      .cls-5 {
        clip-path: url(#clippath-4);
      }

      .cls-6 {
        clip-path: url(#clippath-3);
      }

      .cls-7 {
        clip-path: url(#clippath-2);
      }

      .cls-8 {
        clip-path: url(#clippath-7);
      }

      .cls-9 {
        clip-path: url(#clippath-8);
      }

      .cls-10 {
        clip-path: url(#clippath-6);
      }

      .cls-11 {
        clip-path: url(#clippath-5);
      }

      .cls-12 {
        clip-path: url(#clippath-9);
      }

      .cls-13 {
        clip-path: url(#clippath-14);
      }

      .cls-14 {
        clip-path: url(#clippath-13);
      }

      .cls-15 {
        clip-path: url(#clippath-12);
      }

      .cls-16 {
        clip-path: url(#clippath-10);
      }

      .cls-17 {
        clip-path: url(#clippath-11);
      }

      .cls-3 {
        fill: #fff;
      }
    </style>
    <clipPath id="clippath">
      <path class="cls-2" d="M1639.1,453.7h0c-63.7,0-115.4,51.7-115.4,115.4s51.7,115.4,115.4,115.4h0c63.7,0,115.4-51.7,115.4-115.4s-51.7-115.4-115.4-115.4Z"/>
    </clipPath>
    <clipPath id="clippath-1">
      <path class="cls-2" d="M1809.6,838h0c-53.4,0-96.7,43.3-96.7,96.7s43.3,96.7,96.7,96.7h0c53.4,0,96.7-43.3,96.7-96.7s-43.3-96.7-96.7-96.7Z"/>
    </clipPath>
    <clipPath id="clippath-2">
      <path class="cls-2" d="M889.3,209.6h0c-75.9,0-137.5,61.6-137.5,137.5s61.6,137.5,137.5,137.5h0c75.9,0,137.5-61.6,137.5-137.5s-61.6-137.5-137.5-137.5Z"/>
    </clipPath>
    <clipPath id="clippath-3">
      <path class="cls-2" d="M1738.8,1234.5h0c-41.7,0-75.6,33.8-75.6,75.6s33.8,75.6,75.6,75.6h0c41.7,0,75.6-33.8,75.6-75.6s-33.8-75.6-75.6-75.6Z"/>
    </clipPath>
    <clipPath id="clippath-4">
      <path class="cls-2" d="M1337.5,743.8h0c-97.9,0-177.2,79.3-177.2,177.2s79.3,177.2,177.2,177.2h0c97.9,0,177.2-79.3,177.2-177.2s-79.3-177.2-177.2-177.2Z"/>
    </clipPath>
    <clipPath id="clippath-5">
      <path class="cls-2" d="M1136.4,1665h0c-47.7,0-86.3,38.6-86.3,86.3s38.6,86.3,86.3,86.3h0c47.7,0,86.3-38.6,86.3-86.3s-38.6-86.3-86.3-86.3Z"/>
    </clipPath>
    <clipPath id="clippath-6">
      <path class="cls-2" d="M534.6,489.7h0c-52.6,0-95.3,42.7-95.3,95.3s42.7,95.3,95.3,95.3h0c52.6,0,95.3-42.7,95.3-95.3s-42.7-95.3-95.3-95.3Z"/>
    </clipPath>
    <clipPath id="clippath-7">
      <path class="cls-2" d="M1234,1233.7h0c-59.7,0-108.1,48.4-108.1,108.1s48.4,108.1,108.1,108.1h0c59.7,0,108.1-48.4,108.1-108.1s-48.4-108.1-108.1-108.1Z"/>
    </clipPath>
    <clipPath id="clippath-8">
      <path class="cls-2" d="M749,1567.9h0c-58.9,0-106.6,47.7-106.6,106.6s47.7,106.6,106.6,106.6h0c58.9,0,106.6-47.7,106.6-106.6s-47.7-106.6-106.6-106.6Z"/>
    </clipPath>
    <clipPath id="clippath-9">
      <path class="cls-2" d="M433.3,1280.8h0c-61.2,0-110.8,49.6-110.8,110.8s49.6,110.8,110.8,110.8h0c61.2,0,110.8-49.6,110.8-110.8s-49.6-110.8-110.8-110.8Z"/>
    </clipPath>
    <clipPath id="clippath-10">
      <path class="cls-2" d="M1534.1,1546h0c-58.5,0-105.8,47.4-105.8,105.8s47.4,105.8,105.8,105.8h0c58.5,0,105.8-47.4,105.8-105.8s-47.4-105.8-105.8-105.8Z"/>
    </clipPath>
    <clipPath id="clippath-11">
      <path class="cls-2" d="M1287.2,314.2h0c-41.6,0-75.3,33.7-75.3,75.3s33.7,75.3,75.3,75.3h0c41.6,0,75.3-33.7,75.3-75.3s-33.7-75.3-75.3-75.3Z"/>
    </clipPath>
    <clipPath id="clippath-12">
      <path class="cls-2" d="M925.7,672.2h0c-65.8,0-119.2,53.3-119.2,119.2s53.3,119.2,119.2,119.2h0c65.8,0,119.2-53.3,119.2-119.2s-53.3-119.2-119.2-119.2Z"/>
    </clipPath>
    <clipPath id="clippath-13">
      <path class="cls-2" d="M390,888.8h0c-45.8,0-82.9,37.1-82.9,82.9s37.1,82.9,82.9,82.9h0c45.8,0,82.9-37.1,82.9-82.9s-37.1-82.9-82.9-82.9Z"/>
    </clipPath>
    <clipPath id="clippath-14">
      <path class="cls-2" d="M827.5,1127.1h0c-44.1,0-79.8,35.7-79.8,79.8s35.7,79.8,79.8,79.8h0c44.1,0,79.8-35.7,79.8-79.8s-35.7-79.8-79.8-79.8Z"/>
    </clipPath>
  </defs>
  <path class="cls-3" d="M924.2,795.7l-.3-4.3-36.5-446.5,403.7,43.1-2.4,2.7-364.4,405ZM891.3,349.1l35.8,437.8,356.3-395.9-392.1-41.8Z"/>
  <path class="cls-3" d="M1336.1,925.5l-51-539.1,356.9,182.2-1.5,1.8-304.4,355.1ZM1289.4,392.7l49.5,523.8,297.3-346.8-346.8-177Z"/>
  <path class="cls-3" d="M1234.7,1346.8l-2.3-4-310.7-554.8,418,145.6-.4,1.6-104.6,411.6ZM929.6,794.7l303.7,542.3,101.9-401-405.6-141.3Z"/>
  <polygon class="cls-3" points="387 974.7 388.3 971 532.9 584.4 536.4 585.6 393.1 968.7 925.1 789.6 926.3 793.1 387 974.7"/>
  <path class="cls-3" d="M431.8,1394.4l-43.9-425.9,3.1,1.6,440.7,236.9-399.8,187.4ZM392.2,975l42.7,413.9,388.5-182.1-431.2-231.8Z"/>
  <polygon class="cls-3" points="750.2 1678.1 432.1 1393 434.6 1390.2 747.7 1670.8 825.7 1206.5 829.3 1207.2 750.2 1678.1"/>
  <path class="cls-3" d="M1136.4,1753.2h-.4c0,0-391.7-77.8-391.7-77.8l3.6-2.5,482-330.5-404.6-134.4.4-1.6,97.9-414.1-392.5-207.1,357.2-239.6,2.1,3.1-352.1,236.2,389.6,205.5-.3,1.4-97.8,413.9,403.1,133.9.3-1.3,2,2.1,3.1,1-1.3.9,300.7,310.7-401.2,100.3ZM753.6,1673.5l382.7,76,394.2-98.6-295.5-305.3-96.9,390.4-3.6-.9,96.5-389-477.5,327.4Z"/>
  <rect class="cls-3" x="1722.5" y="550.2" width="3.7" height="403.5" transform="translate(-156.2 799.4) rotate(-25)"/>
  <path class="cls-3" d="M1535.6,1652.8l-3.2-1.9,202.9-338.8-501.2,31.6-.2-3.7,500.6-31.5-401.7-389.5,479.1,14-.4,2.1-70.7,374.3,2.3,2.2-3.2.2-204.2,341ZM1342.2,923l395.4,383.4,69.8-369.8-465.3-13.6Z"/>
  <g class="cls-1">
    <image width="1290" height="2100" transform="translate(1503 389.4) scale(.2)" xlink:href="insta-posts/26c-mei.jpg"/>
  </g>
  <g class="cls-4">
    <image width="1440" height="1800" transform="translate(1704.1 816.8) scale(.2)" xlink:href="insta-posts/MEI-20A.jpg"/>
  </g>
  <g class="cls-7">
    <image width="1290" height="1813" transform="translate(745.2 164.7) scale(.2)" xlink:href="insta-posts/29c-mei.jpg"/>
  </g>
  <g class="cls-6">
    <image width="1440" height="1440" transform="translate(1664.2 1210.5) scale(.1)" xlink:href="insta-posts/MEI-28A.jpg"/>
  </g>
  <g class="cls-5">
    <image width="720" height="900" transform="translate(1133.5 681.1) scale(.5)" xlink:href="insta-posts/MEI-25C.jpg"/>
  </g>
  <g class="cls-11">
    <image width="1118" height="1132" transform="translate(1008.4 1284.9) scale(.5)" xlink:href="insta-posts/MEI-26B.jpg"/>
  </g>
  <g class="cls-10">
    <image width="1440" height="1439" transform="translate(389.4 447.4) scale(.2)" xlink:href="insta-posts/MEI-22C.jpg"/>
  </g>
  <g class="cls-8">
    <image width="950" height="934" transform="translate(1080.7 1190.8) scale(.4)" xlink:href="insta-posts/MEI-25B.jpg"/>
  </g>
  <g class="cls-9">
    <image width="1080" height="1080" transform="translate(617 1448.6) scale(.3)" xlink:href="insta-posts/MEI-19A.JPG"/>
  </g>
  <g class="cls-12">
    <image width="1440" height="1440" transform="translate(294.9 1267.5) scale(.2)" xlink:href="insta-posts/MEI-25E.jpg"/>
  </g>
  <g class="cls-16">
    <image width="1080" height="1080" transform="translate(1357.5 1471.8) scale(.3)" xlink:href="insta-posts/MEI-29B.jpg"/>
  </g>
  <g class="cls-17">
    <image width="1290" height="1813" transform="translate(1205 290.4) scale(.1)" xlink:href="insta-posts/29-mei.jpg"/>
  </g>
  <g class="cls-15">
    <image width="1440" height="1440" transform="translate(775.5 599.3) scale(.3)" xlink:href="insta-posts/MEI-30B.jpg"/>
  </g>
  <g class="cls-14">
    <image width="1080" height="1080" transform="translate(287.5 817.3) scale(.2)" xlink:href="insta-posts/MEI-23A.jpg"/>
  </g>
  <g class="cls-13">
    <image width="953" height="953" transform="translate(730.2 1116.4) scale(.2)" xlink:href="insta-posts/MEI-19B.jpg"/>
  </g>
</svg>