<?xml version="1.0" encoding="UTF-8"?>
<svg id="Capa_1" data-name="Capa 1" xmlns="http://www.w3.org/2000/svg" version="1.1" viewBox="0 0 369.8 354.6">
  <defs>
    <style>
      .cls-1 {
        fill: #beff6f;
        stroke-width: 0px;
      }
    </style>
  </defs>
  <g>
    <path class="cls-1" d="M194.5,244.2h-13.2c-9.3,0-16.8,7.5-16.8,16.8v18.2c0,9.3,7.5,16.8,16.8,16.8h13.2c9.3,0,16.8-7.5,16.8-16.8v-18.2c0-9.3-7.5-16.8-16.8-16.8Z"/>
    <path class="cls-1" d="M101.8,103.7l24.3,3c7.7,1,15-3.5,17.8-10.7,3.5-9.1,8.4-16.4,14.6-21.6,8.8-7.4,19.8-11.2,33-11.2s24.5,3.6,32.5,10.7c8.1,7.2,12.1,15.7,12.1,25.8s-2.3,13.8-6.8,19.8c-2.9,3.8-12,11.8-27.1,24-15.1,12.2-25.2,23.3-30.2,33-5.1,10-6.9,21.1-7.4,32.3-.4,9.5,7.2,17.5,16.8,17.5h13.7c8.7,0,15.9-6.7,16.7-15.4.6-6.2,1.6-11,3.2-14.2,2.6-5.5,9.4-12.8,20.3-21.9,21.1-17.5,34.9-31.3,41.4-41.5,6.4-10.2,9.7-20.9,9.7-32.3,0-20.6-8.8-38.6-26.3-54.1-17.5-15.5-41.1-23.3-70.8-23.3s-51,7.6-68.3,22.9c-14.8,13-23.8,28.5-26.9,46.3-1,5.2,2.6,10.1,7.8,10.7Z"/>
  </g>
  <g>
    <path class="cls-1" d="M123.2,273.2l-6.3,3.9c-4.4,2.8-5.8,8.6-3,13l5.4,8.7c2.8,4.4,8.6,5.8,13,3l6.3-3.9c4.4-2.8,5.8-8.6,3-13l-5.4-8.7c-2.8-4.4-8.6-5.8-13-3Z"/>
    <path class="cls-1" d="M37,233.8l12.5-5.8c4-1.8,6.1-6.1,5.3-10.4-1.1-5.4-.9-10.3.5-14.7,2-6.2,6.1-11.3,12.4-15.2,6.5-4.1,12.8-5.6,18.7-4.6,6,1,10.4,3.9,13.4,8.7,2.2,3.4,3,7.3,2.7,11.5-.3,2.7-2.2,9.2-5.7,19.5-3.6,10.3-5.1,18.6-4.6,24.8.5,6.3,3,12.2,6.1,17.6,2.7,4.7,8.7,6.2,13.2,3.3l6.5-4.1c4.2-2.6,5.6-8,3.4-12.3-1.6-3.1-2.5-5.7-2.7-7.7-.4-3.4.7-8.9,3.2-16.5,4.9-14.7,7.3-25.4,7.4-32.2,0-6.8-1.6-12.9-5-18.3-6.1-9.8-15.7-15.8-28.7-18-13-2.2-26.6,1.2-40.7,10-13.5,8.4-22,18.8-25.8,31.3-3.2,10.6-2.8,20.7,1,30.1,1.1,2.8,4.2,4,6.9,2.8Z"/>
  </g>
  <g>
    <path class="cls-1" d="M262.1,280.6l-6.3-3.9c-4.4-2.8-10.3-1.4-13,3l-5.4,8.7c-2.8,4.4-1.4,10.3,3,13l6.3,3.9c4.4,2.8,10.3,1.4,13-3l5.4-8.7c2.8-4.4,1.4-10.3-3-13Z"/>
    <path class="cls-1" d="M259.8,185.8l10.7,8.7c3.4,2.7,8.2,2.8,11.7.2,4.4-3.3,8.9-5.3,13.4-6,6.4-.9,12.8.6,19.1,4.5,6.5,4.1,10.6,9,12.3,14.8,1.7,5.8,1.1,11.1-1.9,15.9-2.2,3.4-5.2,5.9-9.2,7.4-2.5.9-9.2,2.1-20.1,3.4-10.9,1.3-18.9,3.6-24.3,6.8-5.4,3.2-9.6,8-13.2,13.2-3,4.4-1.8,10.5,2.8,13.4l6.5,4.1c4.2,2.6,9.6,1.6,12.6-2.3,2.1-2.8,4-4.8,5.7-5.8,2.9-1.8,8.3-3.3,16.2-4.4,15.3-2,26-4.5,32.1-7.5,6.1-2.9,10.9-7.1,14.3-12.5,6.1-9.8,7.3-21,3.6-33.7-3.7-12.6-12.7-23.4-26.9-32.2-13.5-8.4-26.6-11.6-39.5-9.4-10.9,1.8-19.8,6.5-26.7,14.1-2,2.2-1.8,5.6.5,7.4Z"/>
  </g>
</svg>