<?xml version="1.0" encoding="UTF-8"?>
<svg id="Laag_1" data-name="Laag 1" xmlns="http://www.w3.org/2000/svg" viewBox="0 0 1925.89 1240.55">
  <defs>
    <style>
      .cls-1 {
        fill: #a74f3c;
      }

      .cls-1, .cls-2, .cls-3, .cls-4, .cls-5, .cls-6 {
        stroke-width: 0px;
      }

      .cls-2 {
        fill: #a44e3a;
      }

      .cls-3 {
        fill: #e4a183;
      }

      .cls-4 {
        fill: #843e2d;
      }

      .cls-5 {
        fill: #fefefd;
      }

      .cls-6 {
        fill: #a84e3a;
      }
    </style>
  </defs>
  <path class="cls-5" d="M1867.22,277.38q-66.16-21.42-42.79-87.67c2.65-7.51,4.78-15.25,8.04-22.48,19.74-43.82,20.86-95.57,58.68-132.02,9.84-9.49,5.14-25.13-8.1-31.61-15.64-7.65-29.3-3.29-35.1,14.66-21.85,67.56-67.83,120.08-109.57,175.05-16.89,22.24-44.06,22.79-60.28,1.1-39.33-52.59-82.71-102.97-103.85-166.86-4.11-12.43-10.97-19.62-24.08-19.85-10.17-.18-17.4,5.27-21.62,14.04-5.19,10.78-1.89,21.43,6.96,27.44,15.67,10.65,20.04,26.8,25.54,42.89,11.38,33.33,25,66.06,33.69,100.07,5.99,23.44,34.7,50.16,13.02,69.63-17.86,16.04-51.04,15.05-77.48,21.42-2.05.49-4.46-.62-6.72-.9-11.39-1.41-22.2.47-21.18,14.48.99,13.68,11.75,15.37,22.87,11.43,22.16-7.85,45.14-3.13,67.63-5.28,18.49-1.76,23.59,5.66,21.89,23.47-4.21,44.14-6.92,88.43-10.24,132.66-26.43,38.01-45.8,79.82-65.47,121.47-12.09,25.61-21.54,52.42-39.99,74.88-40.53,49.33-95.43,64.2-155.34,63.26-124.16-1.96-247.88,3.67-370.3,23.93-230.15,38.09-450.05,108.63-657.73,215.85-108.74,56.13-209.79,123.03-296.46,210.21-9.41,9.46-23.53,18.68-17.97,34.03,5.58,15.43,23.61,13.83,35.77,14.24,49.97,1.69,100.03.68,150.06.66,195.75,2.76,391.49,5.93,587.24,8.18,254.95,2.92,509.9,5.11,764.86,7.62,34.9,8.12,69.6,13.36,102.51-7.13,2.98,1.46,6.24,4.57,8.92,4.14,115.67-18.63,217.59-77.64,257.25-204.36,22.96-73.36,21.1-148.2,10.42-223.16-17.74-124.43-68.45-240.41-93.65-362.95-5.99-39.12-11.73-78.28-18.08-117.34-2.86-17.57,2.83-25.38,21.45-23.82,22.49,1.88,45.26-.67,67.44,6.18,10.15,3.13,18.53-1.29,19.39-12.7.87-11.53-6.72-15.66-17.41-15.37-10.06.27-20.13.34-30.19.5Z"/>
  <path class="cls-3" d="M1641.7,1226.25c-32.91,20.48-67.61,15.25-102.51,7.13-84.68-24.52-168.47-52.98-254.29-72.45-84.92-19.27-172.26-19.65-256.2,7.53-121.62,39.38-242.34,40.09-365.64,7.93-94.99-24.78-191.86-37.56-289.4-10.75-62.25,17.11-124.38,34.62-186.57,51.95-50.03.02-100.09,1.03-150.06-.66-12.16-.41-30.19,1.19-35.77-14.24-5.55-15.35,8.57-24.56,17.97-34.03,86.66-87.18,187.72-154.08,296.46-210.21,207.69-107.21,427.58-177.75,657.73-215.85,122.41-20.26,246.14-25.89,370.3-23.93,59.91.95,114.8-13.93,155.34-63.26,18.46-22.46,27.9-49.26,39.99-74.88,19.66-41.65,39.04-83.46,65.47-121.47,4.37,114.73,40.71,220.28,90.62,322.39,25.52,52.22,45.45,107.08,52.93,165.03,14.01,108.62,1.07,218.27-106.37,279.76ZM813.03,1123.25c42.63-.08,78.67-9.3,112.05-26.99,11.45-6.07,24.91-15.57,23.02-30.97-1.88-15.31-16.11-20.27-29.6-24.42-38.58-11.88-76.62-5.61-113.43,5.99-24.65,7.77-62.45,13.27-56.37,46.89,5.55,30.68,42.7,25.72,64.33,29.5ZM1010.65,994.49c29.12,1.88,56.05-5.11,81.06-19.64,8.89-5.16,18.39-10.94,15.41-23.38-2.66-11.08-12.15-17.11-22.31-18.2-26.9-2.86-54.17-5.2-80.55,3.25-21.09,6.76-51.94,12.29-48.41,38.03,3.38,24.64,34.05,18.7,54.8,19.94ZM1438.18,856.36c-26.87-.88-51.16,7.45-74.19,20.31-9.19,5.13-17.64,11.49-16.16,23.44,1.55,12.55,12.46,15.76,22.36,17.07,36.08,4.79,69.53-3.29,99.74-23.66,6.51-4.39,13.61-10.17,11.5-19.08-2.25-9.53-10.3-14.78-19.65-16.44-7.72-1.36-15.72-1.15-23.6-1.64ZM227.78,1171.96c14.74,1.21,32.29-6.53,48.8-16.68,9.48-5.82,21.23-12.48,17.32-25.98-4-13.82-17.41-12.49-28.54-11.65-19.44,1.47-37.85,7.48-53.6,18.9-8.49,6.15-21.73,12.47-16.41,26.16,4.45,11.44,17.01,8.64,32.42,9.25ZM1512.9,822.97c23.33.51,44.01-4.05,61.62-18.16,5.09-4.08,11.44-8.62,9.16-16.6-2.14-7.46-9.38-9.68-15.83-11.18-20.71-4.83-40.63-.41-59.62,7.67-12.12,5.16-29.26,9.8-25.97,26.5,3.1,15.71,20.11,10.27,30.64,11.78ZM871.86,1006.93c19.78-2.18,41.64-3.01,56.61-21.78,3.93-4.93,3.5-11.37-1.78-14.98-19.85-13.57-41.11-8.82-61.74-2.59-12.5,3.78-30.65,7.1-28.25,23.6,2.32,15.97,20.13,14.69,35.16,15.75ZM1058.45,1083.69c16.09.8,31.44-2.13,46.32-8.27,7.7-3.17,15.3-7.28,15.31-16.11,0-11.48-10.68-14.25-19.04-15.88-24.2-4.7-47.08.92-68.49,12.52-5.98,3.24-12.21,7.8-9.94,15.71,2.01,7,8.4,10.27,15.57,10.93,6.74.62,13.52.75,20.28,1.09ZM652.81,1068.71c15.09,1.2,28.91-4,42.59-8.98,8.44-3.07,17.28-7.55,16.4-18.72-.96-12.11-10.97-13.3-19.97-13.27-14.54.06-29.73-.92-43.42,2.92-12.68,3.56-33.44,5.64-29.96,24.95,2.98,16.54,21.34,12.24,34.35,13.1ZM750.23,944.9c-20.66.67-41.01,2.36-56.41,18.23-4.15,4.28-4.45,11.4.71,15.22,19.51,14.42,40.63,9.31,61.45,3.43,12.9-3.64,30.6-6.64,28.16-23.34-2.6-17.81-21.34-11.65-33.93-13.53ZM313.32,1088.73c20.77-4.57,45.09-7.6,54.45-31.65,4-10.26-9.01-13.36-18.41-13.78-21.83-.98-60.09,20.35-58.28,32.88,1.69,11.62,11.63,11.98,22.23,12.54ZM1409.63,796.08c-12.91,4.58-33.38,1.84-37.59,19.9-3.08,13.21,12.43,13.56,21.87,12.18,14.98-2.19,34.84-1.54,39.16-19.22,3.19-13.05-12.28-11.94-23.44-12.85ZM245.5,1105.57c11.73-3.98,27.78-3.3,33.12-18.14,3.18-8.81-6.28-11.33-12.83-10.08-13.07,2.5-27.77,4.69-32.11,20.15-1.81,6.46,4.57,9.13,11.81,8.07ZM386.69,1105.9c-17.43-6.02-32.48-4.1-45.35,9.79-3.23,3.48-5.21,9.14.03,11.28,17.22,7.04,30.11-3.49,42.95-12.64,1.34-.95,1.2-3.98,2.38-8.42ZM197.83,1090.16c-4-10.57-12.85-7.59-19.76-6.63-11.23,1.57-23.67,6.25-23.9,18.65-.2,10.61,11.81,7.56,18.73,6.52,11.12-1.68,21-6.43,24.93-18.53ZM140.85,1158.23c11.48-2.43,25.58-3.42,28.82-17.44,1.81-7.82-7.88-10-14.55-8.6-11.74,2.46-26.02,4.16-29.18,17.94-2.18,9.48,8.46,7.09,14.92,8.11Z"/>
  <path class="cls-2" d="M1641.7,1226.25c107.44-61.49,120.39-171.13,106.37-279.76-7.48-57.95-27.41-112.82-52.93-165.03-49.9-102.11-86.24-207.66-90.62-322.39,3.31-44.23,6.03-88.52,10.23-132.66,1.7-17.81-3.4-25.24-21.89-23.47-22.49,2.15-45.47-2.57-67.63,5.28-11.13,3.94-21.88,2.25-22.87-11.43-1.02-14.01,9.79-15.89,21.18-14.48,2.25.28,4.67,1.39,6.72.9,26.44-6.36,59.62-5.38,77.48-21.42,21.68-19.47-7.02-46.19-13.02-69.63-8.7-34-22.31-66.74-33.69-100.07-5.5-16.09-9.87-32.24-25.54-42.89-8.85-6.01-12.15-16.66-6.96-27.44,4.23-8.77,11.46-14.22,21.62-14.04,13.11.23,19.97,7.42,24.08,19.85,21.14,63.89,64.52,114.28,103.85,166.86,16.22,21.69,43.4,21.14,60.28-1.1,41.74-54.97,87.72-107.5,109.57-175.05,5.81-17.96,19.47-22.31,35.1-14.66,13.24,6.48,17.94,22.12,8.1,31.61-37.82,36.44-38.94,88.2-58.68,132.02-3.26,7.23-5.39,14.97-8.04,22.48q-23.36,66.24,42.79,87.67c-2.03,12.34-11.56,13.41-20.65,11.92-28.56-4.69-50.31,6.23-68.09,27.55-21.3-5.12-40.88-13.34-53.83-32.17-5.48-7.96-13.41-11.63-19.77-5.12-18.92,19.35-43.7,30.79-64.36,49.51,51.54-15.76,101.48,1.64,151.67,1.85,7.81,20.02,12.07,40.6,14.18,62.14,1.63,16.6-1.7,36.77,18.26,46.87,25.2,122.54,75.91,238.52,93.65,362.95,10.69,74.96,12.54,149.8-10.42,223.16-39.66,126.72-141.57,185.74-257.25,204.36-2.68.43-5.93-2.68-8.92-4.14ZM1758.66,655.02c1.33-20.16-5.67-37.77-16.55-54.06-5.37-8.05-13.01-12.73-23.05-10.63-10.27,2.16-15.09,9.86-15.69,19.53-1.18,19.09-2.88,38.39,6.67,56.3,7.35,13.79,12.89,31.79,33.56,26.02,18.82-5.25,13.67-23.26,15.05-37.17ZM1791.12,726.84c1.35,19.68,3.33,43.1,28.2,46,16.11,1.88,14.45-17.42,14.04-29.37-.72-20.88-3.7-44.61-28.4-47.45-15.99-1.84-12.39,17.85-13.84,30.83ZM1765.66,545.33c-1.54-16.52-2.24-36.08-22.1-39.87-12.51-2.38-13.08,12.75-12.7,22.65.65,16.94,2.13,36.31,22.21,39.92,14.15,2.54,11.15-13.06,12.6-22.7ZM1770.77,757.08c-5.51-8.35-3.56-25.79-19.39-26.35-10.8-.38-12.02,12.44-10.14,21.33,2.24,10.63,2.53,25.25,16.43,26.89,12.39,1.46,11.95-10.68,13.1-21.87ZM1791.61,571.63c1.41,9.85,1.95,24.24,17.66,25.27,9.2.6,10.47-10.15,9.58-18.1-1.35-12.08-2.47-26.53-17.82-27.67-9.9-.74-9.01,10.44-9.43,20.5ZM1789.61,618.31c-11.65,1.65-11.42,10.13-11.02,18.02.59,11.51,2.22,24.19,14.95,27.7,11.34,3.13,12.14-7.38,12.02-15.3-.19-12.76-2.5-24.87-15.96-30.43Z"/>
  <path class="cls-1" d="M187.08,1217.58c62.19-17.33,124.32-34.84,186.57-51.95,97.53-26.81,194.4-14.03,289.4,10.75,123.31,32.16,244.02,31.45,365.64-7.93,83.94-27.18,171.28-26.8,256.2-7.53,85.82,19.48,169.61,47.93,254.29,72.45-254.95-2.51-509.91-4.7-764.86-7.62-195.75-2.25-391.5-5.42-587.24-8.18Z"/>
  <path class="cls-1" d="M1824.63,439.92c-19.95-10.11-16.63-30.27-18.26-46.87-2.11-21.55-6.37-42.12-14.18-62.15-4.57-4.69-9.14-9.38-13.71-14.06,17.78-21.32,39.53-32.24,68.09-27.55,9.09,1.49,18.62.42,20.65-11.92,10.06-.16,20.13-.23,30.19-.5,10.69-.29,18.27,3.84,17.41,15.37-.86,11.41-9.24,15.83-19.39,12.7-22.18-6.84-44.95-4.3-67.44-6.18-18.62-1.56-24.31,6.25-21.45,23.82,6.35,39.06,12.09,78.22,18.08,117.34Z"/>
  <path class="cls-2" d="M813.03,1123.25c-21.62-3.78-58.78,1.18-64.33-29.5-6.08-33.62,31.72-39.12,56.37-46.89,36.81-11.6,74.84-17.87,113.43-5.99,13.48,4.15,27.71,9.11,29.6,24.42,1.89,15.4-11.57,24.9-23.02,30.97-33.38,17.7-69.42,26.92-112.05,26.99Z"/>
  <path class="cls-6" d="M1010.65,994.49c-20.75-1.23-51.42,4.71-54.8-19.94-3.53-25.74,27.32-31.27,48.41-38.03,26.37-8.45,53.65-6.11,80.55-3.25,10.16,1.08,19.66,7.12,22.31,18.2,2.98,12.43-6.52,18.22-15.41,23.38-25.02,14.53-51.95,21.53-81.06,19.64Z"/>
  <path class="cls-6" d="M1438.18,856.36c7.88.49,15.88.27,23.6,1.64,9.35,1.65,17.4,6.91,19.65,16.44,2.1,8.92-5,14.69-11.5,19.08-30.21,20.37-63.65,28.45-99.74,23.66-9.9-1.31-20.8-4.53-22.36-17.07-1.48-11.95,6.97-18.31,16.16-23.44,23.03-12.85,47.32-21.19,74.19-20.31Z"/>
  <path class="cls-6" d="M227.78,1171.96c-15.41-.6-27.98,2.2-32.42-9.25-5.32-13.7,7.93-20.01,16.41-26.16,15.75-11.42,34.16-17.44,53.6-18.9,11.12-.84,24.54-2.17,28.54,11.65,3.91,13.5-7.85,20.16-17.32,25.98-16.52,10.15-34.06,17.89-48.8,16.68Z"/>
  <path class="cls-6" d="M1512.9,822.97c-10.52-1.5-27.54,3.93-30.64-11.78-3.29-16.7,13.85-21.34,25.97-26.5,18.99-8.08,38.92-12.49,59.62-7.67,6.44,1.5,13.69,3.72,15.83,11.18,2.28,7.98-4.07,12.52-9.16,16.6-17.61,14.1-38.3,18.67-61.62,18.16Z"/>
  <path class="cls-6" d="M871.86,1006.93c-15.03-1.06-32.84.22-35.16-15.75-2.39-16.5,15.75-19.82,28.25-23.6,20.63-6.23,41.89-10.98,61.74,2.59,5.27,3.61,5.71,10.05,1.78,14.98-14.97,18.77-36.82,19.6-56.61,21.78Z"/>
  <path class="cls-6" d="M1058.45,1083.69c-6.76-.35-13.54-.48-20.28-1.09-7.18-.66-13.56-3.93-15.57-10.93-2.27-7.91,3.96-12.47,9.94-15.71,21.42-11.6,44.29-17.22,68.49-12.52,8.37,1.63,19.05,4.4,19.04,15.88,0,8.84-7.61,12.94-15.31,16.11-14.88,6.13-30.23,9.06-46.32,8.27Z"/>
  <path class="cls-6" d="M652.81,1068.71c-13.01-.86-31.37,3.44-34.35-13.1-3.48-19.31,17.28-21.39,29.96-24.95,13.69-3.84,28.88-2.86,43.42-2.92,9-.04,19.01,1.16,19.97,13.27.88,11.17-7.96,15.65-16.4,18.72-13.68,4.98-27.5,10.18-42.59,8.98Z"/>
  <path class="cls-6" d="M750.23,944.9c12.58,1.87,31.32-4.28,33.93,13.53,2.44,16.7-15.26,19.7-28.16,23.34-20.82,5.88-41.94,10.99-61.45-3.43-5.16-3.82-4.86-10.94-.71-15.22,15.39-15.87,35.74-17.56,56.41-18.23Z"/>
  <path class="cls-6" d="M313.32,1088.73c-10.61-.56-20.54-.92-22.23-12.54-1.82-12.53,36.44-33.87,58.28-32.88,9.4.42,22.41,3.51,18.41,13.78-9.37,24.05-33.68,27.08-54.45,31.65Z"/>
  <path class="cls-1" d="M1409.63,796.08c11.16.91,26.63-.2,23.44,12.85-4.32,17.68-24.19,17.03-39.16,19.22-9.43,1.38-24.95,1.03-21.87-12.18,4.21-18.05,24.68-15.31,37.59-19.9Z"/>
  <path class="cls-6" d="M245.5,1105.57c-7.24,1.06-13.62-1.61-11.81-8.07,4.33-15.46,19.04-17.65,32.11-20.15,6.55-1.25,16.01,1.27,12.83,10.08-5.35,14.84-21.39,14.16-33.12,18.14Z"/>
  <path class="cls-6" d="M386.69,1105.9c-1.18,4.44-1.04,7.47-2.38,8.42-12.84,9.15-25.72,19.68-42.95,12.64-5.24-2.14-3.26-7.8-.03-11.28,12.87-13.89,27.93-15.81,45.35-9.79Z"/>
  <path class="cls-1" d="M197.83,1090.16c-3.93,12.11-13.81,16.86-24.93,18.53-6.92,1.04-18.93,4.1-18.73-6.52.23-12.4,12.67-17.08,23.9-18.65,6.9-.97,15.75-3.94,19.76,6.63Z"/>
  <path class="cls-6" d="M140.85,1158.23c-6.46-1.02-17.1,1.37-14.92-8.11,3.17-13.78,17.44-15.47,29.18-17.94,6.67-1.4,16.36.78,14.55,8.6-3.24,14.02-17.33,15.01-28.82,17.44Z"/>
  <path class="cls-3" d="M1758.66,655.02c-1.38,13.91,3.77,31.91-15.05,37.17-20.67,5.77-26.2-12.23-33.56-26.02-9.55-17.91-7.85-37.21-6.67-56.3.6-9.67,5.42-17.38,15.69-19.53,10.03-2.11,17.67,2.58,23.05,10.63,10.87,16.29,17.88,33.9,16.55,54.06Z"/>
  <path class="cls-4" d="M1778.48,316.84c4.57,4.69,9.14,9.37,13.71,14.06-50.19-.2-100.13-17.6-151.67-1.84,20.66-18.72,45.45-30.16,64.36-49.51,6.36-6.51,14.29-2.84,19.77,5.12,12.95,18.83,32.53,27.05,53.83,32.17Z"/>
  <path class="cls-3" d="M1791.12,726.84c1.45-12.98-2.16-32.67,13.84-30.83,24.71,2.84,27.68,26.57,28.4,47.45.41,11.95,2.07,31.25-14.04,29.37-24.87-2.9-26.85-26.32-28.2-46Z"/>
  <path class="cls-3" d="M1765.66,545.33c-1.45,9.64,1.55,25.24-12.6,22.7-20.08-3.61-21.56-22.98-22.21-39.92-.38-9.9.19-25.03,12.7-22.65,19.86,3.78,20.56,23.34,22.1,39.87Z"/>
  <path class="cls-3" d="M1770.77,757.08c-1.15,11.19-.71,23.33-13.1,21.87-13.9-1.64-14.19-16.26-16.43-26.89-1.87-8.89-.66-21.72,10.14-21.33,15.83.56,13.88,18,19.39,26.35Z"/>
  <path class="cls-3" d="M1791.61,571.63c.42-10.06-.47-21.24,9.43-20.5,15.35,1.14,16.47,15.59,17.82,27.67.89,7.95-.38,18.7-9.58,18.1-15.71-1.03-16.25-15.41-17.66-25.27Z"/>
  <path class="cls-3" d="M1789.61,618.31c13.46,5.56,15.77,17.67,15.96,30.43.12,7.92-.68,18.43-12.02,15.3-12.73-3.52-14.37-16.2-14.95-27.7-.4-7.9-.63-16.37,11.02-18.02Z"/>
</svg>