<?xml version="1.0" encoding="UTF-8"?>
<svg id="Laag_1" data-name="Laag 1" xmlns="http://www.w3.org/2000/svg" version="1.1" viewBox="0 0 430.9 248.7">
  <defs>
    <style>
      .cls-1 {
        fill: #fff;
        stroke-width: 0px;
      }
    </style>
  </defs>
  <path class="cls-1" d="M361.3,120.5c1.5-9.9,2.8-19.8,4.5-29.7,1.7-9.9,3.9-19.8,5.8-29.7.6-3.2.6-6.5,1.2-9.8.5-2.4.9-5.2,2.4-6.8,1.2-1.3,4.3-1.8,6.1-1.2,1.3.4,2.1,3.1,2.5,4.9.3,1.3,0,3.3-1,4.1-9.9,9.1-7.2,21.8-9,33-1.7,10.6-1.4,21.6-1.9,32.4.8,0,1.6.1,2.3.2.3-5.2.6-10.5.9-15.5,7,5.8,14.1,10.8,20,16.9,3.2,3.3,4.4,8.4,6.7,12.7,2.1,3.8,3.6,8.3,6.6,11.2,5,4.6,11.1,7.8,16.5,11.9,2.3,1.7,4,4.2,5.9,6.4-.6.8-1.2,1.6-1.8,2.4-2.6-1.6-5.4-3-7.9-4.8-4.9-3.7-9.4-7.9-14.4-11.3-4.4-3-8.1-1.2-11.1,2.9-4.8,6.4-10.5,12.3-14.6,19.1-6,9.8-12,19.8-16.2,30.4-15.7,39.9-64.8,59.9-104.8,42.2-17.8-7.9-35.9-9.9-55-5.3-14.3,3.4-28.7,3.6-43.5.2-8.8-2-19.4-1.5-28,1.4-15.7,5.3-30.5,4.5-45.3-1.5-10.1-4.1-20.3-6.3-31.3-5.6-9.7.6-18.8-2.4-27-7.5-7.2-4.4-14.5-8.8-21.6-13.4-2.2-1.4-4.3-3.2-6-5.2-4.2-5-2.7-9.7,3.5-12,.6-.2,1.2-.5,1.8-.5,16.6.7,29.8-8.6,44.1-14.7,2.7-1.1,5.3-2.4,8.1-3.1,7.8-2,14.4-2,21.3,4.5,15.5,14.7,33.9,22.1,55.5,14.2,10.9-4,18.2-12.5,25-21.5,1.2-1.6,4-3.5,5.5-3.1,16.9,4.2,33.7,1.3,50.6.6,26.6-1.1,52.2-7.7,78-13.2,6.8-1.5,12.7-4,13.8-12.1.1-.9.8-2,1.5-2.5,13.2-8.9,19.9-22.8,27.5-35.9.5-.9.8-2,1.5-2.7,10-10.4,10-23.2,9.5-36.4-.5-11.5.7-23.1.5-34.6-.1-6.2-1.7-12.4-2.6-18.7-.3-2.2-1.4-5-.5-6.5,1.5-2.5,4.4-4.1,6.7-6.1,1.4,2.6,4.7,6,4,7.7-5.8,13.3-.3,26.5-.2,39.7,0,8,.5,16.1.8,24.1,0,2.1-.4,4.4.4,6.1,5.8,12.7,2.7,25.5,1.1,38.3-.1,1-.1,2-.1,3,.6.2,1.1.3,1.7.5Z"/>
  <path class="cls-1" d="M166,165.2c10.7-25.7,13.7-50.8,8.9-76.6-3.1-16.9-9.4-32.5-21.4-45.2-23.4-24.5-57-21.6-75.2,7-5.4,8.5-9.3,17.8-15.1,26.3,2.6-6.2,4.6-12.6,7.7-18.5C95.4,12,142.2-9,193.1,3.6c36.2,8.9,66.5,27.3,86.6,59.4,13.5,21.7,22.9,45.2,23.5,71.4,0,2.2.4,4.5,1,6.7,1.8,6,.7,9.1-5.4,10.4-17.7,4-35.3,8.8-53.3,11.1-21.4,2.7-43.2,3.2-64.8,4.3-4.6.2-9.2-1-14.7-1.7Z"/>
  <path class="cls-1" d="M77.2,59.1c7.8-15.5,18.8-27.4,37.2-28.4,19.8-1.1,34,9,44,25,14.7,23.5,17.6,49.5,13.4,76.3-1.6,10.3-4.4,20.6-8.4,30.2-12.6,30.4-44.6,39.7-71.4,20.5-25.7-18.4-35.3-44.6-34.3-75.4.1-3,.7-6.1,2-9.2.4,3.8.7,7.5,1.1,11.3,1.1,9.4,3.8,18.2,9.9,25.6,9.9,12,25.6,13.1,37.2,2.7,18.3-16.5,21.9-56,6.8-75.5-7.9-10.3-19-12.9-30.8-7.1-2.4,1.2-4.6,2.6-6.9,4Z"/>
  <path class="cls-1" d="M87.5,71.8q-2.9-5.5-12.8-6.3c6.3-7.2,13.6-10.5,22.5-10.4,9,0,14.3,5.9,18.1,13,9.6,17.9,6.2,48.3-6.8,63.8-10.8,12.9-27.3,12.4-36.3-1.8-4-6.3-5.9-14-7.8-22,5.3,3.9,10.1,5.8,15.8,2.8,6.4-3.4,10.2-9,11.4-16.1,1.3-8.1,2-16.3-4.2-23.2l.2.2Z"/>
  <path class="cls-1" d="M87.3,71.7c.8,5.6,2.2,11.3,2.2,16.9,0,7-2.4,13.4-8.1,18-5.6,4.6-10.9,3.4-14.3-2.9-4.6-8.7-2.6-23.8,4.2-30.9,5.1-5.3,10.5-5.7,16.2-1,0,0-.2-.2-.2-.2Z"/>
</svg>